<svg width="60" height="60" viewBox="0 0 60 60" fill="none" xmlns="http://www.w3.org/2000/svg">
<mask id="mask0_3418_3283" style="mask-type:luminance" maskUnits="userSpaceOnUse" x="2" y="2" width="56" height="56">
<path d="M58 2H2V58H58V2Z" fill="white"/>
</mask>
<g mask="url(#mask0_3418_3283)">
<path fill-rule="evenodd" clip-rule="evenodd" d="M8.08668 16.6082H29.9995V14.1734H16.6082V8.08668C16.6082 8.08668 16.6082 2 29.9995 2C43.3908 2 43.3908 8.08668 43.3908 8.08668C43.3908 8.08668 43.4915 18.9265 43.4412 22.6366C43.3908 26.3477 40.9559 28.7816 37.2962 28.7816H22.6959C17.8262 28.7816 14.1743 32.4334 14.1743 37.3031V43.3898H8.08767C8.08767 43.3898 2 43.3908 2 29.9995C2 16.6082 8.08668 16.6082 8.08668 16.6082ZM25.1298 8.08767C25.1298 9.43203 24.0393 10.5225 22.6949 10.5225C21.3505 10.5225 20.26 9.43203 20.26 8.08767C20.26 6.7433 21.3505 5.6528 22.6949 5.6528C24.0393 5.6528 25.1298 6.7433 25.1298 8.08767Z" fill="#B5E93B"/>
<path fill-rule="evenodd" clip-rule="evenodd" d="M51.9135 43.391H30.0007V45.8258H43.3919V51.9125C43.3919 51.9125 43.3919 57.9992 30.0007 57.9992C16.6094 57.9992 16.6094 51.9125 16.6094 51.9125V37.3043C16.6094 33.6515 19.0442 31.2176 22.6961 31.2176H37.3053C42.175 31.2176 45.8268 27.5658 45.8268 22.6961V16.6094H51.9135C51.9135 16.6094 58.0002 16.6094 58.0002 30.0007C58.0002 43.3919 51.9135 43.3919 51.9135 43.3919V43.391ZM39.7382 51.9135C39.7382 53.2579 38.6477 54.3484 37.3033 54.3484C35.9589 54.3484 34.8684 53.2579 34.8684 51.9135C34.8684 50.5691 35.9589 49.4786 37.3033 49.4786C38.6477 49.4786 39.7382 50.5691 39.7382 51.9135Z" fill="#B5E93B"/>
</g>
</svg>
