<svg width="60" height="60" viewBox="0 0 60 60" fill="none" xmlns="http://www.w3.org/2000/svg">
<path d="M51.3549 20.2926C51.4033 18.0951 49.9885 15.8392 48.3927 14.0025C48.2804 13.8743 48.1665 13.7477 48.0542 13.6228C47.6081 13.1323 47.1542 12.6767 46.7221 12.2686C45.2932 10.9159 44.0906 10.0569 44.0906 10.0569C36.0151 3.98038 28.4138 4.02942 23.7341 4.97863C23.6 5.00711 23.4674 5.034 23.3379 5.06248C23.1429 5.10677 22.9542 5.15107 22.7717 5.19537C22.7108 5.21119 22.65 5.22701 22.5907 5.24124C22.5299 5.25706 22.4706 5.27288 22.4129 5.28871C21.8872 5.42792 21.413 5.57347 20.9996 5.71427C20.9138 5.74433 20.8312 5.7728 20.7501 5.80128C20.7001 5.81868 20.6518 5.83608 20.6034 5.85349C20.5301 5.88038 20.4599 5.90727 20.3913 5.93259C20.3538 5.94682 20.3164 5.96106 20.2805 5.9753C20.2696 5.97846 20.2603 5.98163 20.2493 5.98637C20.1901 6.00852 20.1339 6.03067 20.0793 6.05282C20.0294 6.0718 19.981 6.09079 19.9358 6.10977C19.903 6.12401 19.8718 6.13667 19.8406 6.14932C19.7923 6.16989 19.7471 6.18887 19.7034 6.20786C19.5926 6.25374 19.4959 6.29803 19.4101 6.336C19.237 6.4151 19.1153 6.47522 19.0482 6.50844C19.0326 6.51635 19.0186 6.52426 19.0092 6.52901C19.0092 6.52901 19.0061 6.53059 19.0046 6.53217C18.9952 6.53533 18.9905 6.5385 18.9874 6.54008C18.9858 6.54166 18.9843 6.54166 18.9843 6.54166C8.67189 11.177 5.62544 21.3224 5.62544 21.3224C5.13876 22.9124 4.69731 24.4801 4.41029 26.1144C4.38222 26.2836 4.3557 26.4529 4.33074 26.6222C3.77074 30.3874 4.11704 34.0339 5.21675 37.5017C5.43046 38.1836 5.67536 38.8575 5.94834 39.5235C5.9109 39.3622 5.86722 39.1708 5.86722 39.1708C5.86722 39.1708 4.94065 34.6462 5.80171 30.302C5.80171 30.302 6.55201 25.779 9.60002 22.2843C9.60002 22.2843 14.5448 15.1415 23.7528 17.9401C23.7528 17.9401 25.7401 18.6567 26.4249 19.0159C27.1097 19.3513 28.3014 19.867 28.3014 19.867C34.8155 23.069 40.3359 24.0767 40.3359 24.0767C52.0179 26.0701 51.3549 20.2926 51.3549 20.2926ZM29.6258 11.4776L21.5004 8.91469C21.4567 8.91469 21.2367 8.80395 20.839 8.91469C20.839 8.91469 16.4011 10.0569 17.1732 12.5217C17.1732 12.5217 17.6365 14.0657 18.8954 15.5671L27.846 15.2111L27.7368 15.4405C27.6369 15.6477 27.4342 15.7838 27.2064 15.7949L18.925 16.1983C18.9156 16.1999 18.9047 16.1999 18.8954 16.1999C18.7129 16.1999 18.5397 16.1176 18.4196 15.9768C17.0937 14.3948 16.5961 12.7732 16.5758 12.7052C16.3715 12.055 16.437 11.389 16.7646 10.791C17.6818 9.11719 20.3804 8.37997 20.6845 8.30245C20.8437 8.25657 21.0137 8.23284 21.1775 8.23284C21.3865 8.23284 21.5362 8.27239 21.6127 8.29295C21.6376 8.2977 21.6626 8.30403 21.686 8.31036L29.2155 10.685C29.3902 10.7403 29.5306 10.8685 29.604 11.0378C29.6632 11.177 29.671 11.3336 29.6258 11.4776ZM37.7746 14.6701C37.7668 15.325 37.2427 15.855 36.5922 15.8582H36.5829C35.9293 15.8597 35.3989 15.3298 35.3896 14.6701V14.6479C35.388 13.9835 35.9168 13.4424 36.5735 13.4393H36.5829C37.238 13.4361 37.7715 13.9724 37.7746 14.6384V14.6701Z" fill="#B5E93B"/>
<path d="M4.2701 36.4812C3.73974 35.8468 3.24526 35.1823 2.82097 34.4673C2.48872 33.8629 2.13618 33.2127 2.02543 32.5198C1.91468 31.8253 2.17986 31.153 2.57763 30.5929C2.86465 30.1674 3.21874 29.832 3.39501 29.3162C3.42153 29.245 3.44493 29.1738 3.4652 29.1011C3.35757 31.5817 3.62587 34.048 4.2701 36.4812Z" fill="#B5E93B"/>
<path d="M5.22767 37.5127C5.22767 37.5127 5.21987 37.5063 5.21675 37.5016C4.11704 34.0338 3.77074 30.3873 4.33074 26.6221C3.77698 30.3841 4.12951 34.0417 5.22767 37.5127Z" fill="#B5E93B"/>
<path d="M19.4103 6.33591C19.4961 6.29794 19.5928 6.25364 19.7035 6.20776C19.5943 6.25364 19.4961 6.29794 19.4103 6.33591Z" fill="#B5E93B"/>
<path d="M27.2326 3.90431C22.2987 4.14636 19.0338 5.80273 18.7125 5.97201C13.2591 8.4273 9.83364 12.4092 7.91811 15.3186C5.84035 18.4763 5.06041 21.0312 5.02921 21.1341C4.56748 22.6417 4.09952 24.2744 3.79534 26.0067C3.70331 26.5477 3.62999 27.0872 3.5754 27.6267C3.34766 25.3043 1.40716 22.9233 2.68783 20.6278C3.12927 19.8669 3.72515 19.1502 4.43177 18.6123C6.11021 17.2913 6.86051 16.619 6.97126 14.246C7.01494 13.4391 6.9931 12.6101 7.08201 11.8049C7.17093 10.7734 7.50162 9.87801 8.319 9.20723C9.0693 8.60132 10.0193 8.26593 10.9458 8.10931C11.8506 7.95269 12.735 8.01914 13.6179 7.68375C14.6334 7.30248 15.5163 6.63171 16.2448 5.82488C16.8859 5.10823 17.4599 4.32513 18.1447 3.60847C20.419 1.21172 24.1721 1.77175 26.6897 3.474C26.852 3.58316 27.0469 3.74294 27.2326 3.90431Z" fill="#B5E93B"/>
<path d="M3.57572 27.6265C3.52268 28.1185 3.4868 28.6105 3.46497 29.1009C3.58352 28.6975 3.61159 28.2798 3.59288 27.8606C3.58976 27.7831 3.58352 27.704 3.57572 27.6265Z" fill="#B5E93B"/>
<path d="M57.3828 41.0736C57.3828 41.0736 55.6388 48.0614 46.9612 54.1079C46.9612 54.1079 37.5333 61.0941 23.7314 56.3464C23.7314 56.3464 14.4127 53.3453 8.67232 44.6569C8.4009 44.2456 8.1404 43.8295 7.89081 43.4103C7.80346 43.0717 7.66775 42.7458 7.52892 42.4263C5.94876 38.7876 5.64614 34.301 6.41361 30.4267C6.41517 30.4203 6.41673 30.414 6.41673 30.4061C6.42452 30.3634 7.17171 26.0239 10.0684 22.7033C10.0824 22.6859 10.098 22.6669 10.1105 22.6479C10.1433 22.602 13.4768 17.9224 19.5743 17.9224C20.8628 17.9224 22.2027 18.1312 23.5598 18.541C24.1136 18.7419 25.6126 19.3019 26.1383 19.5772C26.1446 19.5804 26.1492 19.5835 26.1539 19.5851C26.5174 19.7639 27.0118 19.9869 27.4065 20.1625C25.2242 20.8222 19.9253 22.9596 17.8803 28.533C15.2753 35.6315 18.8739 41.8567 18.8739 41.8567C18.8739 41.8567 21.3245 46.7167 26.6687 48.9568C26.6687 48.9568 22.4071 45.1046 22.5178 40.9613L22.5397 40.9835C22.6941 41.2081 23.4896 42.0592 23.4896 42.0592C24.3725 43.0227 25.3209 43.9181 26.3146 44.7471C31.5932 49.202 38.0184 51.5102 44.8631 49.8744C44.8631 49.8744 39.6297 50.2098 36.1418 46.2468C36.1418 46.2468 44.4373 46.6502 52.0979 38.2592C51.8904 38.4475 48.0313 41.8741 42.8322 40.8949C42.8322 40.8949 47.6241 38.3193 51.0028 31.1085C51.0028 31.1085 55.0211 23.1352 51.9965 16.5967C51.9965 16.5967 59.3934 23.5386 51.9528 35.0256C52.037 34.9686 54.759 33.086 57.7368 26.5175C57.7368 26.5175 59.3482 33.4372 54.6015 39.9994C54.6015 39.9994 52.4379 43.8738 47.359 46.1124C47.359 46.1124 50.3836 46.6281 57.3828 41.0736Z" fill="#B5E93B"/>
</svg>
