<svg width="60" height="60" viewBox="0 0 60 60" fill="none" xmlns="http://www.w3.org/2000/svg">
<path d="M27.7899 4L17.7471 19.0577V28.6035H11.5923V19.0577L2 4H8.91839L15.0179 13.696L21.1668 4H27.7899Z" fill="#B5E93B"/>
<path d="M38.1262 23.1894H26.9851L24.7191 28.6607H19.7852L30.2181 4.05713H35.2646L45.2737 28.6607H40.002L38.1272 23.1894H38.1262ZM36.2751 18.2772L32.8594 9.24789L29.0495 18.2772H36.2751Z" fill="#B5E93B"/>
<path d="M11.5918 31.3633V55.4769H16.7658V38.8437L22.1798 50.0234H26.2524L31.8521 38.4506V55.4719H36.8156V31.3633H30.0385L24.0259 42.2683L18.2988 31.3633H11.5918Z" fill="#B5E93B"/>
<path d="M58.0002 50.2368H45.2727V31.3574H40.0019V55.3673H58.0002V50.2368Z" fill="#B5E93B"/>
</svg>
