<svg width="60" height="60" viewBox="0 0 60 60" fill="none" xmlns="http://www.w3.org/2000/svg">
<path d="M7.9 9.80005V50.3C3 44.9 0 37.8 0 30C0 22.2 3 15.1 7.9 9.80005Z" fill="#B5E93B"/>
<path d="M11.0996 14.2002L28.3996 48.9002H11.0996V14.2002Z" fill="#B5E93B"/>
<path d="M30 45.0001L13 11.1001H47L30 45.0001Z" fill="#B5E93B"/>
<path d="M30.0008 0C37.8008 0 44.9008 3 50.2008 7.9H9.80078C15.1008 3 22.2008 0 30.0008 0Z" fill="#B5E93B"/>
<path d="M48.8996 48.9002H31.5996L48.8996 14.2002V48.9002Z" fill="#B5E93B"/>
<path d="M50.2008 52.1001C44.9008 57.0001 37.8008 60.0001 30.0008 60.0001C22.2008 60.0001 15.1008 57.0001 9.80078 52.1001H50.2008Z" fill="#B5E93B"/>
<path d="M52.0996 50.1998V9.7998C56.9996 15.0998 59.9996 22.1998 59.9996 29.9998C59.9996 37.7998 56.9996 44.8998 52.0996 50.1998Z" fill="#B5E93B"/>
<path d="M11.0996 14.2002L28.3996 48.9002H11.0996V14.2002Z" fill="#B5E93B"/>
<path d="M30 45.0001L13 11.1001H47L30 45.0001Z" fill="#B5E93B"/>
<path d="M31.5996 48.9002L48.8996 14.2002V48.9002H31.5996Z" fill="#B5E93B"/>
<path d="M13 11.1001H47L30 45.0001L13 11.1001Z" fill="#B5E93B"/>
</svg>
