<svg width="15" height="16" viewBox="0 0 15 16" fill="none" xmlns="http://www.w3.org/2000/svg">
<path d="M2.89354 6.86435C4.04456 9.35807 5.89898 11.3936 8.16105 12.6713L9.91956 10.7327C10.1354 10.4948 10.4551 10.4155 10.7349 10.5212C11.6301 10.8473 12.5973 11.0235 13.5884 11.0235C14.0281 11.0235 14.3878 11.42 14.3878 11.9047V14.98C14.3878 15.4646 14.0281 15.8611 13.5884 15.8611C6.08282 15.8611 0 9.15541 0 0.881175C0 0.396529 0.359694 0 0.79932 0H3.59694C4.03656 0 4.39626 0.396529 4.39626 0.881175C4.39626 1.98264 4.55612 3.04005 4.85187 4.02697C4.9398 4.33538 4.87585 4.67904 4.65204 4.92577L2.89354 6.86435Z" fill="#FFFDFD"/>
</svg>
