<svg width="60" height="60" viewBox="0 0 60 60" fill="none" xmlns="http://www.w3.org/2000/svg">
<g clip-path="url(#clip0_3418_3318)">
<path d="M42.7219 11.2092L35.7192 18.282C33.6807 17.1657 31.3536 16.6533 29.0104 16.834C26.7616 17.0066 24.6206 17.8074 22.8193 19.1206C21.1826 18.6379 19.4784 18.3899 17.7797 18.3899H17.7096C14.9376 18.406 12.2546 19.0532 9.81433 20.2801C10.8606 17.8344 12.3463 15.599 14.1988 13.6765C16.7955 10.9881 20.0258 9.0089 23.5878 7.93032C27.1498 6.85173 30.9276 6.70882 34.5597 7.51236C37.5123 8.16491 40.287 9.42685 42.7219 11.2092Z" fill="#B5E93B"/>
<path d="M57.2908 41.2693C56.2823 44.5455 54.2573 47.4037 51.515 49.4261C48.7727 51.4484 45.4588 52.527 42.0639 52.5H32.0412V42.6714H42.0639C42.8621 42.6714 43.6521 42.5123 44.391 42.2023C45.1271 41.8949 45.7985 41.4419 46.3621 40.8729C46.9256 40.3039 47.3759 39.6271 47.6806 38.8802C47.9853 38.136 48.1444 37.3378 48.1444 36.5316C48.1444 35.7254 47.9853 34.9272 47.6806 34.183C47.3759 33.4388 46.9256 32.762 46.3621 32.1903C45.7985 31.6214 45.1271 31.1684 44.391 30.861C43.6521 30.5509 42.8621 30.3918 42.0639 30.3918V29.1676C42.0963 27.3124 41.7134 25.4734 40.9422 23.7882C40.6024 23.0439 40.1899 22.3402 39.7126 21.6849C39.1356 20.8895 38.4588 20.1641 37.7038 19.5278C37.6714 19.5008 37.6363 19.4711 37.604 19.4442L44.3397 12.6437L44.4368 12.5466C45.1001 13.1399 45.723 13.7708 46.3055 14.4368C48.5327 16.9769 50.1587 20.0077 51.0458 23.3055C53.8609 25.2254 55.9857 28.0108 57.1102 31.2466C58.2346 34.4823 58.2966 37.9958 57.2908 41.2693Z" fill="#B5E93B"/>
<path d="M30.3286 26.8054L23.2747 33.9267C22.8675 33.0234 22.2527 32.2307 21.4762 31.6186C20.7023 31.0065 19.7909 30.5939 18.8255 30.416C17.8575 30.238 16.8598 30.3 15.9215 30.5966C14.9831 30.8905 14.1283 31.4136 13.4326 32.1147C12.7369 32.8158 12.2219 33.6787 11.928 34.6278C11.6341 35.5743 11.5748 36.5801 11.75 37.5589C11.928 38.535 12.3352 39.4545 12.9419 40.2365C12.9985 40.3066 13.0551 40.3794 13.1144 40.4468C13.6942 41.1317 14.4141 41.6791 15.2285 42.0512H15.2258L8.19072 49.1563L8.17454 49.1725C7.53009 48.671 6.92608 48.1209 6.37061 47.5304C4.67454 45.7345 3.4072 43.5558 2.68455 41.1586C1.72731 37.9768 1.77585 34.5712 2.82747 31.419C3.46653 29.5019 4.45882 27.7357 5.74233 26.2068C6.56206 25.2226 7.50582 24.3408 8.55204 23.575C8.7327 23.4429 8.91606 23.3135 9.10212 23.1895H9.10482C11.6584 21.4853 14.6514 20.5658 17.7227 20.5469C18.7608 20.5442 19.7936 20.644 20.8074 20.8435H20.8101C21.6433 21.008 22.4631 21.2399 23.2612 21.5392C23.7681 21.728 24.267 21.9437 24.7523 22.1837C26.9392 23.2703 28.8483 24.8532 30.3286 26.8054Z" fill="#B5E93B"/>
<path d="M29.8841 42.6013V52.4299H17.723C14.9996 52.4434 12.3355 51.7423 9.98151 50.413L17.7203 42.6013H29.8841Z" fill="#B5E93B"/>
</g>
<defs>
<clipPath id="clip0_3418_3318">
<rect width="56" height="45.5" fill="white" transform="translate(2 7)"/>
</clipPath>
</defs>
</svg>
