<svg width="60" height="60" viewBox="0 0 60 60" fill="none" xmlns="http://www.w3.org/2000/svg">
<path d="M57.4557 25.2523C57.2997 25.1219 55.897 24.0541 52.8843 24.0541C52.1049 24.0541 51.2999 24.1322 50.5205 24.2626C49.9496 20.2759 46.6504 18.3477 46.521 18.243L45.7159 17.7738L45.1963 18.5295C44.5474 19.5459 44.0535 20.6927 43.768 21.8652C43.2227 24.1322 43.5606 26.2688 44.7034 28.0932C43.3265 28.8745 41.0931 29.0573 40.6258 29.083H3.74391C2.7828 29.083 2.00344 29.8643 2.00344 30.8294C1.95108 34.0604 2.49733 37.2915 3.61353 40.3408C4.88579 43.6765 6.78234 46.1519 9.22316 47.6632C11.9761 49.3573 16.4696 50.3213 21.5339 50.3213C23.8197 50.3213 26.1054 50.1129 28.3645 49.6961C31.5066 49.1231 34.5203 48.0287 37.299 46.4393C39.5847 45.1108 41.6364 43.4167 43.3768 41.4362C46.3115 38.1271 48.052 34.4269 49.3243 31.1435H49.8439C53.0384 31.1435 55.0129 29.8663 56.1035 28.7718C56.8305 28.0942 57.3757 27.2605 57.7659 26.3221L58 25.6445L57.4548 25.2533L57.4557 25.2523Z" fill="#B5E93B"/>
<path d="M7.19526 28.035H12.1302C12.3643 28.035 12.5718 27.8522 12.5718 27.5915V23.1543C12.5718 22.9192 12.39 22.7108 12.1302 22.7108H7.19526C6.96116 22.7108 6.75372 22.8936 6.75372 23.1543V27.5915C6.77941 27.8522 6.96116 28.035 7.19526 28.035ZM13.9991 28.035H18.9341C19.1682 28.035 19.3756 27.8522 19.3756 27.5915V23.1543C19.3756 22.9192 19.1939 22.7108 18.9341 22.7108H13.9991C13.765 22.7108 13.5576 22.8936 13.5576 23.1543V27.5915C13.5833 27.8522 13.765 28.035 13.9991 28.035ZM20.9344 28.035H25.8693C26.1035 28.035 26.3109 27.8522 26.3109 27.5915V23.1543C26.3109 22.9192 26.1291 22.7108 25.8693 22.7108H20.9344C20.7003 22.7108 20.4928 22.8936 20.4928 23.1543V27.5915C20.4928 27.8522 20.6746 28.035 20.9344 28.035ZM27.7649 28.035H32.6999C32.934 28.035 33.1414 27.8522 33.1414 27.5915V23.1543C33.1414 22.9192 32.9597 22.7108 32.6999 22.7108H27.7649C27.5308 22.7108 27.3234 22.8936 27.3234 23.1543V27.5915C27.3234 27.8522 27.5308 28.035 27.7649 28.035ZM13.9991 21.6934H18.9341C19.1682 21.6934 19.3756 21.485 19.3756 21.2499V16.8128C19.3756 16.5777 19.1939 16.3692 18.9341 16.3692H13.9991C13.765 16.3692 13.5576 16.552 13.5576 16.8128V21.2499C13.5833 21.485 13.765 21.6934 13.9991 21.6934ZM20.9344 21.6934H25.8693C26.1035 21.6934 26.3109 21.485 26.3109 21.2499V16.8128C26.3109 16.5777 26.1291 16.3692 25.8693 16.3692H20.9344C20.7003 16.3692 20.4928 16.552 20.4928 16.8128V21.2499C20.4928 21.485 20.6746 21.6934 20.9344 21.6934ZM27.7649 21.6934H32.6999C32.934 21.6934 33.1414 21.485 33.1414 21.2499V16.8128C33.1414 16.5777 32.934 16.3692 32.6999 16.3692H27.7649C27.5308 16.3692 27.3234 16.552 27.3234 16.8128V21.2499C27.3234 21.485 27.5308 21.6934 27.7649 21.6934ZM27.7649 15.3242H32.6999C32.934 15.3242 33.1414 15.1414 33.1414 14.8806V10.4435C33.1414 10.2084 32.934 10 32.6999 10H27.7649C27.5308 10 27.3234 10.1827 27.3234 10.4435V14.8806C27.3234 15.1157 27.5308 15.3242 27.7649 15.3242ZM34.6468 28.035H39.5818C39.8159 28.035 40.0233 27.8522 40.0233 27.5915V23.1543C40.0233 22.9192 39.8416 22.7108 39.5818 22.7108H34.6468C34.4127 22.7108 34.2053 22.8936 34.2053 23.1543V27.5915C34.2309 27.8522 34.4127 28.035 34.6468 28.035Z" fill="#B5E93B"/>
</svg>
