<svg width="60" height="60" viewBox="0 0 60 60" fill="none" xmlns="http://www.w3.org/2000/svg">
<g clip-path="url(#clip0_3418_3294)">
<path d="M52.9508 46.4452C52.7538 46.0846 52.5131 45.6687 52.1675 45.3032C51.649 44.759 51.3308 44.0703 51.1354 43.0696C50.9303 42.0121 50.5459 40.7694 49.4476 39.923C50.1502 36.7748 49.6947 33.6396 48.0408 30.1438C46.7503 27.4195 44.909 25.1177 43.1275 22.8922L42.7576 22.4292C41.136 20.397 40.4173 18.2625 40.4964 15.7104C40.5643 13.5467 40.3931 11.3114 39.9844 9.06802C39.2948 5.28141 37.0449 2.84147 33.6466 2.19981C32.9424 2.06823 32.1688 2 31.3499 2C30.699 2 29.9964 2.04224 29.2599 2.12671C25.453 2.56044 22.8171 5.03124 22.2082 8.73663C21.89 10.6811 21.806 12.7897 21.9594 15.007C22.2179 18.7498 21.3602 21.6755 19.2557 24.2145C18.1283 25.5758 17.0575 27.132 15.8833 29.1122C14.3586 31.6838 12.6562 35.1601 12.9292 39.3447C12.8064 39.4958 12.6901 39.6452 12.5755 39.7931C11.9068 40.6459 11.3786 41.3184 10.4774 41.5832C7.97392 42.3142 6.93861 44.067 7.39731 46.7896C7.57982 47.8731 7.54752 48.7211 7.29556 49.5398C6.85786 50.9547 6.90631 52.087 7.44092 53.0032C7.98684 53.9356 8.98823 54.5448 10.5016 54.8648C10.8101 54.9298 11.1202 54.9785 11.4222 55.0126C13.7416 55.2677 15.5134 55.6007 17.1786 56.4665C18.2592 57.0269 19.485 57.2332 20.3136 57.3372C20.7012 57.3876 21.0776 57.4119 21.4313 57.4119C23.4211 57.4119 24.9701 56.6436 26.0393 55.1279C26.4156 55.0873 26.792 55.0435 27.1683 55.0012C28.735 54.8242 30.355 54.639 31.933 54.5643C32.0105 54.5594 32.0896 54.5578 32.1688 54.5578C32.6937 54.5578 33.2477 54.6325 33.8356 54.7121C34.2701 54.7706 34.7191 54.8307 35.1794 54.8648C36.1356 56.8596 37.9171 58 40.091 58C40.322 58 40.5594 57.987 40.7969 57.961C42.8029 57.745 44.5892 56.7589 46.1074 55.0305C46.9392 54.0834 47.9875 53.3037 49.3103 52.649L49.4185 52.5954C50.2002 52.2088 51.0094 51.8076 51.7814 51.3056C53.5759 50.1344 54.0023 48.3621 52.9508 46.4452ZM51.0772 50.214C50.3375 50.698 49.5332 51.0895 48.7385 51.4843C47.3737 52.1601 46.1607 53.008 45.1384 54.1711C43.9528 55.5194 42.4976 56.4698 40.658 56.6696C38.6907 56.8807 37.1063 56.0019 36.289 54.1809C36.0887 53.7374 35.8674 53.6042 35.399 53.5766C34.22 53.5067 33.0393 53.2095 31.8716 53.2663C29.7315 53.3687 27.6011 53.6546 25.4708 53.8836C25.3448 53.8966 25.2027 54.0461 25.1251 54.1679C24.0188 55.9093 22.339 56.2846 20.4751 56.049C19.5545 55.9321 18.5854 55.7339 17.7714 55.3115C15.8074 54.2914 13.7061 53.9567 11.5628 53.7212C11.2963 53.6903 11.0298 53.6481 10.7681 53.5928C8.5796 53.1315 7.86893 52.0593 8.52953 49.9248C8.88001 48.7877 8.86063 47.7042 8.67166 46.5736C8.33248 44.5625 8.90747 43.3945 10.8376 42.8308C12.4656 42.3548 13.1876 41.0293 14.1518 39.8986C14.2391 39.7963 14.2439 39.5916 14.2326 39.4389C13.9419 35.8684 15.2372 32.7396 16.9929 29.7783C17.9684 28.1327 19.0328 26.5147 20.249 25.0462C22.7105 22.0751 23.5116 18.7092 23.2483 14.9177C23.111 12.9391 23.1627 10.9004 23.4841 8.94781C24.0058 5.76062 26.2073 3.78203 29.4053 3.41815C30.7248 3.26708 32.1138 3.23296 33.4092 3.47826C36.5571 4.07119 38.1723 6.32756 38.7133 9.30195C39.0929 11.3894 39.2722 13.5515 39.2059 15.6698C39.1155 18.5695 39.9796 21.024 41.7498 23.2431C43.6347 25.605 45.5631 27.9345 46.873 30.7026C48.3541 33.8313 49.005 37.0412 47.9455 40.5549C49.2311 41.0634 49.6398 42.1485 49.8675 43.3198C50.0807 44.4065 50.4586 45.3861 51.2323 46.2015C51.4697 46.4517 51.6522 46.7652 51.8202 47.0723C52.539 48.3832 52.3225 49.4034 51.0772 50.214Z" fill="#B5E93B"/>
<path d="M29.9237 13.3144C30.0126 12.8709 30.166 12.4225 30.3792 12.0262C31.379 10.1662 33.5594 10.1304 34.6416 11.9368C35.504 13.3777 35.3926 15.2231 34.3201 16.5324C33.8937 16.3554 33.5029 16.1929 33.2348 16.0808C33.301 15.2962 33.4431 14.6091 33.3931 13.9349C33.3494 13.3339 33.0506 12.7198 32.3287 12.7166C31.6552 12.7117 31.3983 13.2949 31.2417 13.8537C31.1415 14.2095 31.1448 14.5944 31.1028 14.9681C29.8349 14.713 29.6831 14.523 29.9237 13.3144Z" fill="#B5E93B"/>
<path d="M24.9918 11.5646C25.5668 11.0155 26.2726 10.9587 26.8783 11.4639C27.7795 12.2176 28.0832 13.2508 27.9507 14.3652C27.9152 14.6543 27.3919 14.8834 26.9655 15.2489C26.8573 14.5926 26.8411 13.5367 26.0077 13.3174C25.3843 13.155 25.2696 14.1394 25.2615 14.539C25.2567 14.7729 25.6863 16.1635 25.5684 16.2577C25.5523 16.2707 25.3746 16.4169 25.2034 16.5582C23.8919 15.4519 23.7966 12.7082 24.9934 11.5646H24.9918Z" fill="#B5E93B"/>
<path d="M34.0127 16.7925C32.916 16.2954 31.829 15.7707 30.7194 15.3045C30.1832 15.0787 29.605 14.9569 29.0445 14.7896C28.048 14.8627 27.263 15.2866 26.5459 15.8974C26.0565 16.3165 25.5607 16.7308 25.0471 17.119C23.7743 18.0807 23.7582 18.94 25.0277 19.9456C25.5736 20.3809 26.1647 20.7594 26.6945 21.2127C27.9866 22.3205 29.261 22.4992 30.776 21.7276C31.7305 21.2419 32.6851 20.7529 33.6267 20.2429C33.9303 20.0772 34.2211 19.8692 34.4747 19.6321C35.6311 18.5485 35.4454 17.4439 34.0127 16.7925ZM28.2983 20.5466C26.7494 20.4183 25.6544 19.4745 24.6982 18.3634C24.7466 18.2935 24.7951 18.222 24.8452 18.1522C25.0874 18.365 25.3329 18.5745 25.5736 18.7906C27.4165 20.454 28.8636 20.6587 31.0812 19.533C31.7515 19.1935 32.3847 18.7825 33.0452 18.4251C33.3521 18.2578 33.6865 18.1424 34.0079 18.0044C34.0386 18.0872 34.0709 18.1701 34.1016 18.2529C32.2183 19.148 30.608 20.7383 28.2983 20.5466Z" fill="#B5E93B"/>
<path d="M24.5395 53.8805C23.8321 55.1427 22.5949 55.3961 20.8118 55.5017C20.1189 55.3084 18.9075 55.1573 17.8755 54.6407C15.9244 53.6661 13.8683 53.2908 11.7476 53.0861C11.5328 53.0667 11.3212 53.0325 11.1096 52.9919C9.04548 52.5923 8.55771 51.8857 9.21992 49.8957C9.62693 48.6692 9.46865 47.5013 9.30067 46.2992C9.08101 44.7234 9.49287 43.9323 10.9982 43.4498C12.2968 43.0324 13.2255 42.2559 14.0072 41.1577C15.3316 39.2994 16.8385 39.2425 18.2728 41.0213C18.977 41.8936 19.4696 42.9349 20.0737 43.8917C20.962 45.3001 21.8503 46.7085 22.7645 48.1007C23.2377 48.8203 23.7869 49.4912 24.2617 50.2108C25.0289 51.374 25.247 52.6167 24.5395 53.8805Z" fill="#B5E93B"/>
<path d="M36.4336 49.1336C33.2194 51.2486 29.8389 52.056 26.1177 50.5046C24.7965 49.9523 24.1456 48.8395 23.3961 47.7755C23.4607 47.7057 23.4898 47.6439 23.5318 47.6326C25.084 47.2183 25.5411 46.3362 24.6721 44.949C24.026 43.9174 23.1183 43.0337 22.2445 42.1679C21.7164 41.6432 21.0429 41.2598 20.413 40.8472C17.8675 39.1724 17.0422 37.2994 17.5881 34.2811C18.0177 31.9013 19.1774 29.8447 20.4114 27.8255C20.4776 27.8564 20.5422 27.8856 20.6068 27.9165C20.2918 28.5533 19.985 29.1949 19.6603 29.8269C18.7042 31.6804 18.0032 33.6086 18.2891 35.7334C18.4005 36.5716 18.7607 37.3757 19.0078 38.1961C19.0853 38.1717 19.1645 38.1473 19.242 38.1214C19.4164 37.0931 19.481 36.0307 19.7895 35.0446C20.2951 33.4267 20.9007 31.8331 21.5726 30.2768C22.7485 27.5494 24.0406 24.8706 24.6107 21.9239C24.706 21.4252 24.7722 20.9216 24.8788 20.2555C25.47 20.7039 25.9723 21.0483 26.4326 21.443C27.8782 22.6857 29.2397 22.9099 30.8904 22.0506C32.3553 21.2887 33.7831 20.457 35.1948 19.6724C35.8134 21.4057 36.4013 23.29 37.1555 25.1029C38.0778 27.3203 39.1793 29.4597 40.1242 31.6674C40.612 32.8045 40.9608 34.005 41.3129 35.1941C41.5827 36.107 41.5423 36.1184 42.6632 36.2516C43.6726 32.4958 42.1544 29.5799 39.8803 26.8314C39.9966 26.8915 40.1387 26.9272 40.2243 27.0182C42.6244 29.5751 44.1895 32.4699 43.7744 36.1314C43.726 36.5684 43.8778 36.7357 44.2299 36.929C44.8872 37.288 45.5721 37.6486 46.1196 38.149C46.5088 38.5031 46.7414 39.0668 46.9417 39.5785C47.0208 39.7848 46.8254 40.0999 46.6817 40.3404C46.0033 38.5063 43.8842 37.033 41.8911 37.0443C40.9899 37.0492 40.4747 37.4553 40.1904 38.3553C40.1209 38.5762 40.0499 38.8881 39.8851 38.9709C38.1763 39.8368 37.8711 41.4466 37.6352 43.1133C37.3881 44.8742 37.1297 46.6335 36.8438 48.3879C36.8002 48.656 36.6452 48.9939 36.4336 49.1336Z" fill="#B5E93B"/>
<path d="M44.69 40.2883C44.128 41.0665 43.3479 41.5928 42.3998 41.6123C41.9685 41.6204 41.3015 41.3182 41.14 40.9706C40.8072 40.2494 40.628 39.4063 40.6005 38.6054C40.5197 36.2694 45.9676 38.5193 44.69 40.2883Z" fill="#B5E93B"/>
<path d="M50.6599 49.7106C50.0268 50.1135 49.3485 50.4514 48.6701 50.773C47.1454 51.4975 45.7806 52.4137 44.6678 53.7182C43.7794 54.7594 42.6682 55.5132 41.3276 55.8868C38.5141 56.6698 36.2658 54.6912 36.6954 51.7932C36.7746 51.2587 36.8634 50.7162 37.0378 50.2109C37.8196 47.9416 38.1313 45.5975 38.2896 43.2144C38.338 42.4996 38.5173 41.7638 38.7903 41.101C39.0099 40.5649 39.4605 40.1263 39.8853 39.5366C40.197 40.3976 40.344 41.01 40.6283 41.551C41.1758 42.5955 42.0852 43.0243 43.1931 42.6572C43.9926 42.394 44.7824 41.9879 45.4608 41.486C46.6092 40.638 48.234 40.9531 48.8413 42.2527C48.8655 42.3014 48.9011 42.3469 48.9124 42.3989C49.2822 44.2508 50.043 45.8948 51.2075 47.4055C51.9327 48.3461 51.6775 49.0641 50.6599 49.7106Z" fill="#B5E93B"/>
</g>
<defs>
<clipPath id="clip0_3418_3294">
<rect width="46.5161" height="56" fill="white" transform="translate(7 2)"/>
</clipPath>
</defs>
</svg>
