<svg width="178" height="96" viewBox="0 0 178 96" fill="none" xmlns="http://www.w3.org/2000/svg">
<path d="M73 39.6266C73 47.6113 82.1099 57.3381 89.3097 63C95.6278 57.7736 104.811 49.4259 105.472 39.6266C105.972 32.2258 99.6685 22.7859 89.3097 23.0037C76.8937 23.2647 73 33.0209 73 39.6266Z" fill="#B5E93B"/>
<path d="M93.0312 37.7778C92.9651 39.9256 91.2524 41.6169 89.2057 41.5555C87.1591 41.4941 85.5535 39.7032 85.6196 37.5555C85.6857 35.4078 87.3984 33.7164 89.445 33.7778C91.4917 33.8392 93.0972 35.6301 93.0312 37.7778Z" fill="#4A4A4A"/>
<path d="M95.9378 62C102.755 65.6522 97.1052 69 89.5747 69C82.0442 69 76.3941 65.3478 82.7571 62" stroke="#FFFDFD" stroke-width="2" stroke-linecap="round"/>
<path d="M8.9782 92L6.8902 90.794V78.86H8.6362V90.434H10.7962V92H8.9782ZM20.2531 90.884L18.1651 92.09H14.6911L12.6031 90.884V84.116L14.6911 82.91H18.1651L20.2531 84.116V90.884ZM14.3491 84.476V90.524H18.5071V84.476H14.3491ZM24.8784 84.566V90.434H29.8824V92H25.2204L23.1324 90.794V84.206L25.2204 83H29.8824V84.566H24.8784ZM33.7821 88.31V90.524H37.4001V88.31H33.7821ZM34.1241 92.09L32.0361 90.884V87.95L34.1241 86.744H37.4001V84.566H32.9361V83H37.0581L39.1461 84.206V92.09H38.6781L37.4001 91.352L36.1221 92.09H34.1241ZM41.3089 84.566V83H42.9649V81.488L44.7109 80.48V83H46.8709V84.566H44.7109V90.434H46.8709V92H45.0529L42.9649 90.794V84.566H41.3089ZM56.5041 90.434V92H51.4821L49.3941 90.794V84.116L51.4821 82.91H54.4161L56.5041 84.116V88.112H51.1401V90.434H56.5041ZM51.1401 84.476V86.546H54.7581V84.476H51.1401ZM61.4665 82.91H64.1845L65.4625 83.648V78.86H67.2085V92.09H65.8945L65.4625 91.352L64.1845 92.09H61.4665L59.3785 90.884V84.116L61.4665 82.91ZM65.4625 90.524V84.476H61.1245V90.524H65.4625ZM76.5053 83V92H74.7593V83H76.5053ZM74.6693 80.786V78.86H76.5953V80.786H74.6693ZM87.0324 84.116V92H85.2864V84.476H81.1284V92H79.3824V82.91H80.6964L81.1284 83.648L82.4064 82.91H84.9444L87.0324 84.116ZM96.3335 84.566V90.434H101.337V92H96.6755L94.5875 90.794V84.206L96.6755 83H101.337V84.566H96.3335ZM105.597 83V92H103.851V83H105.597ZM103.761 80.786V78.86H105.687V80.786H103.761ZM107.754 84.566V83H109.41V81.488L111.156 80.48V83H113.316V84.566H111.156V90.434H113.316V92H111.498L109.41 90.794V84.566H107.754ZM116.667 95.6L118.233 91.586L114.759 83H116.505L119.061 89.408H119.097L121.635 83H123.381L118.377 95.6H116.667ZM137.499 84.116V92H135.753V84.476H131.595V92H129.849V82.91H131.163L131.595 83.648L132.873 82.91H135.411L137.499 84.116ZM141.764 88.31V90.524H145.382V88.31H141.764ZM142.106 92.09L140.018 90.884V87.95L142.106 86.744H145.382V84.566H140.918V83H145.04L147.128 84.206V92.09H146.66L145.382 91.352L144.104 92.09H142.106ZM162.125 84.116V92H160.379V84.476H156.941V92H155.195V84.476H151.757V92H150.011V82.91H151.325L151.757 83.648L153.035 82.91H154.853L156.527 83.882L158.219 82.91H160.037L162.125 84.116ZM172.115 90.434V92H167.093L165.005 90.794V84.116L167.093 82.91H170.027L172.115 84.116V88.112H166.751V90.434H172.115ZM166.751 84.476V86.546H170.369V84.476H166.751Z" fill="#B5E93B"/>
</svg>
