<svg width="147" height="96" viewBox="0 0 147 96" fill="none" xmlns="http://www.w3.org/2000/svg">
<path d="M15.8586 90.884L13.7706 92.09H10.2966L8.20855 90.884V84.116L10.2966 82.91H13.7706L15.8586 84.116V90.884ZM9.95455 84.476V90.524H14.1126V84.476H9.95455ZM24.4799 92.09H21.7619L20.4839 91.352V95.6H18.7379V82.91H20.0519L20.4839 83.648L21.7619 82.91H24.4799L26.5679 84.116V90.884L24.4799 92.09ZM20.4839 84.476V90.524H24.8219V84.476H20.4839ZM36.5529 90.434V92H31.5309L29.4429 90.794V84.116L31.5309 82.91H34.4649L36.5529 84.116V88.112H31.1889V90.434H36.5529ZM31.1889 84.476V86.546H34.8069V84.476H31.1889ZM47.0773 84.116V92H45.3313V84.476H41.1733V92H39.4273V82.91H40.7413L41.1733 83.648L42.4513 82.91H44.9893L47.0773 84.116ZM53.9124 84.566V83H55.5684V81.488L57.3144 80.48V83H59.4744V84.566H57.3144V90.434H59.4744V92H57.6564L55.5684 90.794V84.566H53.9124ZM69.6476 90.884L67.5596 92.09H64.0856L61.9976 90.884V84.116L64.0856 82.91H67.5596L69.6476 84.116V90.884ZM63.7436 84.476V90.524H67.9016V84.476H63.7436ZM82.2247 84.566H78.9487V92H77.2027V83H78.5167L78.9487 83.738L80.2267 83H82.2247V84.566ZM91.3088 90.434V92H86.2868L84.1988 90.794V84.116L86.2868 82.91H89.2208L91.3088 84.116V88.112H85.9448V90.434H91.3088ZM85.9448 84.476V86.546H89.5628V84.476H85.9448ZM96.2712 92L94.1832 90.794V78.86H95.9292V90.434H98.0892V92H96.2712ZM107.546 90.884L105.458 92.09H101.984L99.8961 90.884V84.116L101.984 82.91H105.458L107.546 84.116V90.884ZM101.642 84.476V90.524H105.8V84.476H101.642ZM112.171 84.566V90.434H117.175V92H112.513L110.425 90.794V84.206L112.513 83H117.175V84.566H112.171ZM121.075 88.31V90.524H124.693V88.31H121.075ZM121.417 92.09L119.329 90.884V87.95L121.417 86.744H124.693V84.566H120.229V83H124.351L126.439 84.206V92.09H125.971L124.693 91.352L123.415 92.09H121.417ZM128.602 84.566V83H130.258V81.488L132.004 80.48V83H134.164V84.566H132.004V90.434H134.164V92H132.346L130.258 90.794V84.566H128.602ZM143.797 90.434V92H138.775L136.687 90.794V84.116L138.775 82.91H141.709L143.797 84.116V88.112H138.433V90.434H143.797ZM138.433 84.476V86.546H142.051V84.476H138.433Z" fill="#FFFDFD"/>
<ellipse cx="3.46154" cy="3.30082" rx="3.46154" ry="3.30082" transform="matrix(0.990909 0.134535 -0.169599 0.985513 64.4287 59.5386)" fill="#FFFDFD"/>
<ellipse cx="3.46154" cy="3.30082" rx="3.46154" ry="3.30082" transform="matrix(0.990909 0.134535 -0.169599 0.985513 81.6387 59.5386)" fill="#FFFDFD"/>
<rect x="69" y="19" width="14.1538" height="13.525" rx="1" stroke="#FFFDFD" stroke-width="2"/>
<rect x="61" y="27.8796" width="30" height="33.8728" rx="2" fill="#B5E93B"/>
</svg>
