<svg width="178" height="85" viewBox="0 0 178 85" fill="none" xmlns="http://www.w3.org/2000/svg">
<path d="M12.9728 79.884L10.8848 81.09H7.41081L5.32281 79.884V73.116L7.41081 71.91H10.8848L12.9728 73.116V79.884ZM7.06881 73.476V79.524H11.2268V73.476H7.06881ZM21.5941 81.09H18.8761L17.5981 80.352V84.6H15.8521V71.91H17.1661L17.5981 72.648L18.8761 71.91H21.5941L23.6821 73.116V79.884L21.5941 81.09ZM17.5981 73.476V79.524H21.9361V73.476H17.5981ZM33.6672 79.434V81H28.6452L26.5572 79.794V73.116L28.6452 71.91H31.5792L33.6672 73.116V77.112H28.3032V79.434H33.6672ZM28.3032 73.476V75.546H31.9212V73.476H28.3032ZM44.1916 73.116V81H42.4456V73.476H38.2876V81H36.5416V71.91H37.8556L38.2876 72.648L39.5656 71.91H42.1036L44.1916 73.116ZM51.0266 73.566V72H52.6826V70.488L54.4286 69.48V72H56.5886V73.566H54.4286V79.434H56.5886V81H54.7706L52.6826 79.794V73.566H51.0266ZM66.7619 79.884L64.6739 81.09H61.1999L59.1119 79.884V73.116L61.1999 71.91H64.6739L66.7619 73.116V79.884ZM60.8579 73.476V79.524H65.0159V73.476H60.8579ZM81.643 81L79.699 74.124H79.663L77.737 81H75.667L73.417 72H75.037L76.747 79.038H76.783L78.763 72H80.617L82.597 79.038H82.633L84.343 72H85.963L83.713 81H81.643ZM95.59 79.884L93.502 81.09H90.028L87.94 79.884V73.116L90.028 71.91H93.502L95.59 73.116V79.884ZM89.686 73.476V79.524H93.844V73.476H89.686ZM103.491 73.566H100.215V81H98.4693V72H99.7833L100.215 72.738L101.493 72H103.491V73.566ZM107.211 67.86V76.482H107.247L110.955 72H113.043L109.569 76.068L113.583 81H111.441L108.525 77.31L107.211 78.858V81H105.465V67.86H107.211ZM124.726 73.566H121.45V81H119.704V72H121.018L121.45 72.738L122.728 72H124.726V73.566ZM133.81 79.434V81H128.788L126.7 79.794V73.116L128.788 71.91H131.722L133.81 73.116V77.112H128.446V79.434H133.81ZM128.446 73.476V75.546H132.064V73.476H128.446ZM148.798 73.116V81H147.052V73.476H143.614V81H141.868V73.476H138.43V81H136.684V71.91H137.998L138.43 72.648L139.708 71.91H141.526L143.2 72.882L144.892 71.91H146.71L148.798 73.116ZM159.328 79.884L157.24 81.09H153.766L151.678 79.884V73.116L153.766 71.91H157.24L159.328 73.116V79.884ZM153.424 73.476V79.524H157.582V73.476H153.424ZM161.488 73.566V72H163.144V70.488L164.89 69.48V72H167.05V73.566H164.89V79.434H167.05V81H165.232L163.144 79.794V73.566H161.488ZM176.683 79.434V81H171.661L169.573 79.794V73.116L171.661 71.91H174.595L176.683 73.116V77.112H171.319V79.434H176.683ZM171.319 73.476V75.546H174.937V73.476H171.319Z" fill="#B5E93B"/>
<path d="M76.8613 28.8879H103.335C104.025 28.8879 104.585 29.4476 104.585 30.1379V47.176H75.6113V30.1379C75.6113 29.4476 76.171 28.8879 76.8613 28.8879Z" fill="#4A4A4A" stroke="#B5E93B" stroke-width="1.5"/>
<path d="M71.4893 49.4932H108.58V50.989C108.58 52.6459 107.237 53.989 105.58 53.989H74.4893C72.8324 53.989 71.4893 52.6459 71.4893 50.989V49.4932Z" fill="#B5E93B"/>
<rect x="87.2247" y="50.6172" width="6.74379" height="1.12396" rx="0.561982" fill="#140754"/>
<path d="M77.4889 20.5133C70.9889 19.5133 68.489 23.0132 67.7146 29.0278" stroke="#FFFDFD" stroke-width="2" stroke-linecap="round"/>
<path d="M77.9891 15.0132C67.9259 14.0474 62.2312 20.0162 61.8277 28.8931" stroke="#FFFDFD" stroke-width="2" stroke-linecap="round"/>
<path d="M77.9686 9.19653C65.1721 7.93278 56.4687 16.1965 56.4685 28.6965" stroke="#FFFDFD" stroke-width="2" stroke-linecap="round"/>
</svg>
